<svg id="Capa_1" enable-background="new 0 0 512 512" height="512" viewBox="0 0 512 512" width="512" xmlns="http://www.w3.org/2000/svg"><g><path d="m316 500h-120c-8.291 0-15-6.709-15-15v-109c0-8.291 6.709-15 15-15h120c8.291 0 15 6.709 15 15v109c0 8.291-6.709 15-15 15z" fill="#f3f5f9"/></g><path d="m315.999 361h-60v138.999h60c8.291 0 15-6.709 15-15v-108.999c0-8.291-6.709-15-15-15z" fill="#d8e0f0"/><g><g><path d="m467 391h-422c-24.814 0-45-20.186-45-45v-301c0-24.814 20.186-45 45-45h422c24.814 0 45 20.186 45 45v301c0 24.814-20.186 45-45 45z" fill="#9bf"/></g></g><path d="m255.999 391h211c24.814 0 45-20.186 45-45v-301c0-24.814-20.186-45-45-45h-211z" fill="#738aff"/><g><path d="m286 271h-60c-8.291 0-15-6.709-15-15v-120c0-8.291 6.709-15 15-15h60c8.291 0 15 6.709 15 15v120c0 8.291-6.709 15-15 15zm-45-30h30v-90h-30z" fill="#f3f5f9"/></g><g><g><g><path d="m376 512h-240c-8.291 0-15-6.709-15-15s6.709-15 15-15h240c8.291 0 15 6.709 15 15s-6.709 15-15 15z" fill="#67548c"/></g></g></g><g id="Error_2_"><g><path d="m181 136v120c0 8.399-6.599 15-15 15s-15-6.601-15-15v-45h-45c-8.401 0-15-6.601-15-15v-60c0-8.401 6.599-15 15-15s15 6.599 15 15v45h30v-45c0-8.401 6.599-15 15-15s15 6.599 15 15z" fill="#f3f5f9"/></g></g><g><path d="m421 136v120c0 8.399-6.599 15-15 15s-15-6.601-15-15v-45h-45c-8.401 0-15-6.601-15-15v-60c0-8.401 6.599-15 15-15s15 6.599 15 15v45h30v-45c0-8.401 6.599-15 15-15s15 6.599 15 15z" fill="#d8e0f0"/></g><g><path d="m390.999 497c0-8.291-6.709-15-15-15h-120v30h120c8.291 0 15-6.709 15-15z" fill="#544473"/><path d="m285.999 121h-30v30h15v90h-15v30h30c8.291 0 15-6.709 15-15v-120c0-8.291-6.709-15-15-15z" fill="#d8e0f0"/></g></svg>