<?xml version="1.0" standalone="no"?>
<!DOCTYPE svg PUBLIC "-//W3C//DTD SVG 20010904//EN"
 "http://www.w3.org/TR/2001/REC-SVG-20010904/DTD/svg10.dtd">
<svg version="1.0" xmlns="http://www.w3.org/2000/svg"
 width="700.000000pt" height="700.000000pt" viewBox="0 0 700.000000 700.000000"
 preserveAspectRatio="xMidYMid meet">
<metadata>
Created by potrace 1.11, written by Peter Selinger 2001-2013
</metadata>
<g transform="translate(0.000000,700.000000) scale(0.100000,-0.100000)"
fill="#000000" stroke="none">
<path d="M3278 6995 c-1 -1 -41 -5 -88 -9 -87 -7 -105 -9 -225 -27 -116 -18
-123 -19 -192 -35 -234 -53 -348 -87 -536 -160 -366 -142 -692 -336 -997 -592
-382 -320 -735 -787 -925 -1222 -25 -58 -50 -114 -55 -125 -45 -93 -150 -427
-176 -560 -2 -11 -10 -54 -19 -95 -29 -147 -36 -200 -52 -370 -15 -164 -8
-592 12 -711 2 -13 6 -46 9 -74 9 -78 23 -156 51 -285 30 -141 110 -393 173
-551 50 -125 156 -337 226 -453 36 -60 66 -111 66 -113 0 -2 5 -9 10 -16 6 -7
40 -55 76 -107 37 -52 103 -140 148 -195 138 -171 292 -326 506 -509 87 -74
407 -296 427 -296 3 0 14 -6 22 -14 32 -28 314 -166 448 -219 278 -111 562
-188 818 -222 22 -2 56 -7 75 -10 186 -26 698 -27 838 0 16 3 104 15 147 20
61 8 206 40 322 70 630 167 1179 490 1634 960 48 50 104 110 124 135 21 25 40
47 44 50 12 9 137 174 193 255 124 178 268 444 353 650 68 164 151 426 181
570 16 79 54 301 59 350 4 33 9 71 11 85 9 47 11 525 3 605 -15 165 -21 220
-24 225 -2 3 -6 30 -10 60 -4 30 -22 123 -40 205 -285 1268 -1246 2273 -2500
2614 -106 29 -282 67 -355 76 -19 3 -46 7 -60 10 -13 2 -52 7 -86 11 -33 3
-74 8 -90 10 -32 5 -540 14 -546 9z m1747 -1390 c107 -15 214 -98 263 -203 23
-49 27 -70 27 -152 0 -82 -4 -103 -26 -150 -33 -68 -70 -113 -126 -150 -182
-123 -430 -59 -527 135 -22 45 -37 96 -39 133 0 6 -16 16 -36 21 -46 12 -129
30 -161 35 -14 2 -45 9 -70 15 -84 20 -471 101 -484 101 -8 0 -17 -18 -21 -42
-4 -24 -9 -47 -10 -53 -6 -25 -26 -124 -31 -151 -2 -16 -9 -42 -14 -59 -4 -16
-12 -48 -16 -70 -4 -22 -8 -47 -10 -55 -4 -20 -17 -84 -19 -90 -2 -7 -24 -111
-29 -135 -18 -90 -50 -240 -74 -347 l-20 -88 21 -1 c50 -1 245 -18 277 -24 8
-1 33 -6 55 -9 22 -3 63 -11 90 -16 28 -6 59 -12 70 -14 253 -51 523 -160 752
-303 l102 -64 48 37 c57 44 108 68 188 89 264 68 549 -107 614 -379 26 -105 8
-242 -45 -354 -28 -59 -111 -149 -178 -190 -62 -40 -65 -43 -61 -74 22 -154
-10 -366 -79 -523 -29 -67 -103 -200 -125 -227 -6 -7 -25 -31 -42 -53 -152
-201 -453 -417 -755 -542 -136 -57 -387 -128 -524 -148 -19 -3 -56 -10 -81
-15 -157 -31 -667 -35 -814 -6 -11 2 -40 7 -65 11 -25 3 -58 9 -75 11 -52 9
-227 52 -312 78 -188 57 -393 152 -563 263 -227 148 -413 346 -519 553 -89
175 -116 287 -116 488 0 83 -3 152 -6 152 -4 0 -31 16 -60 36 -305 205 -303
643 2 851 168 115 419 106 585 -21 44 -34 49 -35 68 -21 44 32 191 117 268
156 191 96 491 191 703 223 143 21 159 23 285 31 115 7 120 9 120 32 0 14 60
308 160 783 21 102 41 196 44 210 39 202 49 234 80 255 29 21 65 19 217 -14
73 -17 145 -32 159 -34 14 -3 57 -12 95 -21 39 -9 81 -18 95 -20 51 -9 128
-26 235 -50 124 -28 105 -34 168 48 43 56 124 105 198 120 35 7 71 12 79 11 8
-1 37 -6 65 -10z"/>
<path d="M2583 3481 c-203 -69 -305 -303 -215 -495 36 -77 103 -144 180 -182
49 -23 70 -27 147 -28 78 -1 98 3 147 26 76 35 148 104 183 175 27 52 29 68
30 158 0 91 -3 105 -29 158 -36 71 -109 140 -183 174 -73 34 -184 39 -260 14z"/>
<path d="M4217 3490 c-101 -26 -206 -112 -250 -207 -31 -68 -30 -227 1 -294
109 -232 409 -289 589 -111 180 177 125 485 -106 589 -60 27 -172 38 -234 23z"/>
<path d="M2636 2304 c-19 -20 -26 -37 -26 -67 0 -36 6 -46 52 -88 29 -26 64
-54 78 -61 14 -7 46 -25 71 -39 70 -41 246 -98 353 -115 21 -3 48 -7 59 -9 42
-9 161 -17 252 -19 355 -7 702 92 868 246 41 39 47 50 47 85 0 56 -35 93 -88
93 -32 0 -50 -8 -88 -40 -89 -74 -262 -147 -394 -166 -19 -3 -42 -7 -50 -9
-64 -18 -314 -25 -435 -13 -236 24 -434 92 -549 187 -60 51 -109 56 -150 15z"/>
</g>
</svg>
